<svg width="15" height="15" viewBox="0 0 15 15" fill="none" xmlns="http://www.w3.org/2000/svg">
<path d="M3.16406 0.15H11.8359C12.3347 0.15 12.7406 0.555958 12.7406 1.05469V13.9453C12.7406 14.444 12.3347 14.85 11.8359 14.85H3.16406C2.66533 14.85 2.25938 14.444 2.25938 13.9453V1.05469C2.25938 0.555958 2.66533 0.15 3.16406 0.15ZM9.84375 5.24062H5.15625C4.81454 5.24062 4.5375 5.51766 4.5375 5.85938C4.5375 6.20109 4.81454 6.47813 5.15625 6.47813H9.84375C10.1855 6.47813 10.4625 6.20109 10.4625 5.85938C10.4625 5.51766 10.1855 5.24062 9.84375 5.24062ZM5.15625 7.58437C4.81454 7.58437 4.5375 7.86141 4.5375 8.20312C4.5375 8.54484 4.81454 8.82187 5.15625 8.82187H9.84375C10.1855 8.82187 10.4625 8.54484 10.4625 8.20312C10.4625 7.86141 10.1855 7.58437 9.84375 7.58437H5.15625ZM9.14062 12.5719H10.0781C10.4198 12.5719 10.6969 12.2948 10.6969 11.9531C10.6969 11.6114 10.4198 11.3344 10.0781 11.3344H9.14062C8.79891 11.3344 8.52187 11.6114 8.52187 11.9531C8.52187 12.2948 8.79891 12.5719 9.14062 12.5719Z" fill="#F0F1F4" stroke="#969696" stroke-width="0.3"/>
</svg>
