<svg width="15" height="15" viewBox="0 0 15 15" fill="none" xmlns="http://www.w3.org/2000/svg">
<g clip-path="url(#clip0)">
<path d="M8.96204 6.59183V6.74183H9.11204H10.015C10.0964 6.74183 10.1743 6.77519 10.2305 6.83417L11.6276 8.30121C12.6965 9.4236 13.285 10.8948 13.285 12.4447V14.2861C13.285 14.4505 13.1518 14.5837 12.9874 14.5837H2.01303C1.84866 14.5837 1.71543 14.4505 1.71543 14.2861V12.4447C1.71543 10.8948 2.30392 9.42357 3.37283 8.30121L4.76999 6.83417C4.82615 6.77522 4.90405 6.74183 4.98549 6.74183H5.88839H6.03839V6.59183V5.98178C6.03839 5.81741 6.17162 5.68418 6.33599 5.68418C6.50034 5.68418 6.63358 5.81744 6.63358 5.98178V6.59183V6.74183H6.78358H8.21685H8.36685V6.59183V5.98178C8.36685 5.81741 8.50008 5.68418 8.66444 5.68418C8.8288 5.68418 8.96204 5.81744 8.96204 5.98178V6.59183ZM5.00767 10.755C5.00767 12.1295 6.12567 13.2476 7.50021 13.2476C8.87473 13.2476 9.99276 12.1295 9.99276 10.755C9.99276 9.38049 8.87473 8.26245 7.50021 8.26245C6.1257 8.26245 5.00767 9.38049 5.00767 10.755Z" fill="#F0F1F4" stroke="#969696" stroke-width="0.3"/>
<path d="M6.20273 10.755C6.20273 10.0397 6.78483 9.45762 7.50009 9.45762C8.21532 9.45762 8.79744 10.0398 8.79744 10.755C8.79744 11.4702 8.21532 12.0523 7.50009 12.0523C6.78486 12.0523 6.20273 11.4702 6.20273 10.755Z" fill="#F0F1F4" stroke="#969696" stroke-width="0.3"/>
<path d="M7.50696 0.416634L7.5068 0.416633C6.14241 0.413223 4.71077 0.685151 3.47925 1.17717C2.23894 1.67274 1.2557 2.37017 0.699843 3.13043C0.168912 3.8566 0.0236349 4.6253 0.259169 5.36159C0.40249 5.80951 0.821053 6.11315 1.30467 6.11388C1.30469 6.11388 1.30472 6.11388 1.30474 6.11388M7.50696 0.416634L1.30453 6.26388L1.30474 6.11388M7.50696 0.416634C8.87142 0.41857 10.3013 0.693364 11.531 1.1892C12.7691 1.6885 13.75 2.38895 14.3039 3.15106C14.8333 3.87961 14.9766 4.64942 14.7388 5.38554L14.8816 5.43164L14.7388 5.38554C14.5945 5.83254 14.1757 6.13477 13.693 6.1348H13.693H13.693H13.693H13.693H13.693H13.693H13.693H13.693H13.6929H13.6929H13.6929H13.6929H13.6929H13.6929H13.6929H13.6929H13.6929H13.6929H13.6928H13.6928H13.6928H13.6928H13.6928H13.6928H13.6928H13.6928H13.6928H13.6928H13.6928H13.6927H13.6927H13.6927H13.6927H13.6927H13.6927H13.6927H13.6927H13.6927H13.6927H13.6927H13.6926H13.6926H13.6926H13.6926H13.6926H13.6926H13.6926H13.6926H13.6926H13.6926H13.6926H13.6925H13.6925H13.6925H13.6925H13.6925H13.6925H13.6925H13.6925H13.6925H13.6925H13.6925H13.6924H13.6924H13.6924H13.6924H13.6924H13.6924H13.6924H13.6924H13.6924H13.6924H13.6924H13.6923H13.6923H13.6923H13.6923H13.6923H13.6923H13.6923H13.6923H13.6923H13.6923H13.6923H13.6922H13.6922H13.6922H13.6922H13.6922H13.6922H13.6922H13.6922H13.6922H13.6922H13.6922H13.6922H13.6921H13.6921H13.6921H13.6921H13.6921H13.6921H13.6921H13.6921H13.6921H13.6921H13.6921H13.692H13.692H13.692H13.692H13.692H13.692H13.692H13.692H13.692H13.692H13.692H13.6919H13.6919H13.6919H13.6919H13.6919H13.6919H13.6919H13.6919H13.6919H13.6919H13.6919H13.6919H13.6918H13.6918H13.6918H13.6918H13.6918H13.6918H13.6918H13.6918H13.6918H13.6918H13.6918H13.6917H13.6917H13.6917H13.6917H13.6917H13.6917H13.6917H13.6917H13.6917H13.6917H13.6917H13.6917H13.6916H13.6916H13.6916H13.6916H13.6916H13.6916H13.6916H13.6916H13.6916H13.6916H13.6916H13.6916H13.6915H13.6915H13.6915H13.6915H13.6915H13.6915H13.6915H13.6915H13.6915H13.6915H13.6915H13.6915H13.6914H13.6914H13.6914H13.6914H13.6914H13.6914H13.6914H13.6914H13.6914H13.6914H13.6914H13.6914H13.6913H13.6913H13.6913H13.6913H13.6913H13.6913H13.6913H13.6913H13.6913H13.6913H13.6913H13.6912H13.6912H13.6912H13.6912H13.6912H13.6912H13.6912H13.6912H13.6912H13.6912H13.6912H13.6912M7.50696 0.416634L13.6912 6.1348M1.30474 6.11388L3.17809 6.11564M1.30474 6.11388L3.17809 6.11564M3.17809 6.11564H3.17809H3.1781H3.1781H3.17811H3.17811H3.17811H3.17812H3.17812H3.17812H3.17813H3.17813H3.17814H3.17814H3.17814H3.17815H3.17815H3.17816H3.17816H3.17816H3.17817H3.17817H3.17817H3.17818H3.17818H3.17819H3.17819H3.17819H3.1782H3.1782H3.1782H3.17821H3.17821H3.17822H3.17822H3.17822H3.17823H3.17824H3.17824H3.17825H3.17825H3.17825H3.17826H3.17826H3.17826H3.17827H3.17827H3.17828H3.17828H3.17828H3.17829H3.17829H3.17829H3.1783H3.1783H3.17831H3.17831H3.17831H3.17832H3.17832H3.17832H3.17833H3.17833H3.17834H3.17834H3.17834H3.17835H3.17835H3.17835H3.17836H3.17836H3.17836H3.17837H3.17837H3.17838H3.17838H3.17838H3.17839H3.17839H3.1784H3.1784H3.1784H3.17841H3.17841H3.17841H3.17842H3.17842H3.17842H3.17843H3.17843H3.17844H3.17844H3.17844H3.17845H3.17845H3.17845H3.17846H3.17846H3.17847H3.17847H3.17847H3.17848H3.17848H3.17848H3.17849H3.17849H3.1785H3.1785H3.1785H3.17851H3.17851H3.17851H3.17852H3.17852H3.17852H3.17853H3.17853H3.17854H3.17854H3.17854H3.17855H3.17855H3.17855H3.17856H3.17856H3.17857H3.17857H3.17857H3.17858H3.17858H3.17858H3.17859H3.17859H3.1786H3.1786H3.1786H3.17861H3.17861H3.17861H3.17862H3.17862H3.17863H3.17863H3.17863H3.17864H3.17864H3.17864H3.17865H3.17865H3.17865H3.17866H3.17866H3.17867H3.17867H3.17867H3.17868H3.17868H3.17868H3.17869H3.17869H3.1787H3.1787H3.1787H3.17871H3.17871H3.17871H3.17872H3.17872H3.17872H3.17873H3.17873H3.17874H3.17874H3.17874H3.17875H3.17875H3.17875H3.17876H3.17876H3.17877H3.17877H3.17877H3.17878H3.17878H3.17878H3.17879H3.17879H3.17879H3.1788H3.1788H3.17881H3.17881H3.17881H3.17882H3.17882H3.17882H3.17883H3.17883H3.17883H3.17884H3.17884H3.17885H3.17885H3.17885H3.17886H3.17886H3.17886H3.17887H3.17887H3.17888H3.17888H3.17888H3.17889H3.17889H3.17889H3.1789H3.1789H3.1789H3.17891H3.17891H3.17892H3.17892H3.17892H3.17893H3.17893H3.17893H3.17894H3.17894H3.17894H3.17895H3.17895H3.17896H3.17896H3.17896H3.17897H3.17897H3.17897H3.17898H3.17898H3.17898H3.17899H3.17899H3.179H3.179H3.179H3.17901H3.17901H3.17901H3.17902H3.17902H3.17903H3.17903H3.17903H3.17904H3.17904H3.17904H3.17905H3.17905H3.17905H3.17906H3.17906H3.17907H3.17907H3.17907H3.17908H3.17908H3.17908H3.17909H3.17909H3.17909H3.1791H3.1791H3.17911H3.17911H3.17911H3.17912H3.17912H3.17912H3.17913H3.17913H3.17913H3.17914H3.17914H3.17915H3.17915H3.17915H3.17916H3.17916H3.17916H3.17917H3.17917H3.17917H3.17918H3.17918H3.17919H3.17919H3.17919H3.1792H3.1792H3.1792H3.17921H3.17921H3.17921H3.17922H3.17922H3.17923H3.17923H3.17923H3.17924H3.17924H3.17924H3.17925H3.17925H3.17925H3.17926H3.17926H3.17927H3.17927H3.17927H3.17928H3.17928H3.17928H3.17929H3.17929H3.17929H3.1793H3.1793H3.17931H3.17931H3.17931H3.17932H3.17932H3.17932H3.17933H3.17933H3.17933H3.17934H3.17934H3.17935H3.17935H3.17935H3.17936H3.17936H3.17936H3.17937H3.17937H3.17937H3.17938H3.17938H3.17938H3.17939H3.17939H3.1794H3.1794H3.1794H3.17941H3.17941H3.17941H3.17942H3.17942H3.17942H3.17943H3.17943H3.17944H3.17944H3.17944H3.17945H3.17945H3.17945H3.17946H3.17946H3.17946H3.17947H3.17947H3.17948H3.17948H3.17948H3.17949H3.17949H3.17949H3.1795H3.1795H3.1795H3.17951H3.17951H3.17952H3.17952H3.17952H3.17953H3.17953H3.17953H3.17954H3.17954H3.17954H3.17955H3.17955H3.17955H3.17956H3.17956H3.17957H3.17957H3.17957H3.17958H3.17958H3.17958H3.17959H3.17959H3.17959H3.1796H3.1796H3.17961H3.17961H3.17961H3.17962H3.17962H3.17962H3.17963H3.17963H3.17963H3.17964H3.17964H3.17965H3.17965H3.17965H3.17966H3.17966H3.17966H3.17967H3.17967H3.17967H3.17968H3.17968H3.17968H3.17969H3.17969H3.1797H3.1797H3.1797H3.17971H3.17971H3.17971H3.17972H3.17972H3.17972H3.17973H3.17973H3.17974H3.17974H3.17974H3.17975H3.17975H3.17975H3.17976H3.17976H3.17976H3.17977H3.17977H3.17978H3.17978H3.17978H3.17979H3.17979H3.17979H3.1798H3.1798H3.1798H3.17981H3.17981H3.17981H3.17982H3.17982H3.17983H3.17983H3.17983H3.17984H3.17984H3.17984H3.17985H3.17985H3.17985H3.17986H3.17986H3.17987H3.17987H3.17987H3.17988H3.17988H3.17988H3.17989H3.17989H3.17989H3.1799H3.1799H3.1799H3.17991H3.17991H3.17992H3.17992H3.17992H3.17993H3.17993H3.17993H3.17994H3.17994H3.17994H3.17995H3.17995H3.17996H3.17809ZM7.5014 3.63399C8.9131 3.64122 10.1492 4.14419 10.6957 4.40479M7.5014 3.63399L7.50225 3.48399M7.5014 3.63399L7.50217 3.48399C7.5022 3.48399 7.50222 3.48399 7.50225 3.48399M7.5014 3.63399C6.08868 3.62599 4.85176 4.12925 4.30585 4.38973L4.40443 4.77299M10.6957 4.40479L11.8176 6.28304L11.8178 6.13304M10.6957 4.40479L10.5956 4.78588L10.6957 4.40479ZM7.50225 3.48399C8.94586 3.49141 10.2052 4.00474 10.7603 4.26939L10.8724 4.32283L10.8408 4.44292L10.7406 4.82401L10.7406 4.82402C10.7387 4.83133 10.7371 4.83842 10.7359 4.84536L10.7358 4.84566C10.6774 5.16254 10.7622 5.48666 10.969 5.73549C11.1785 5.98756 11.4874 6.13253 11.8177 6.13304C11.8178 6.13304 11.8178 6.13304 11.8178 6.13304M7.50225 3.48399L4.25908 4.81004L4.40443 4.77299M11.8178 6.13304L13.6912 6.1348M11.8178 6.13304L13.6912 6.1348M4.40443 4.77299L4.25916 4.81036L4.25911 4.81019C4.26094 4.81736 4.26248 4.82441 4.26375 4.83136M4.40443 4.77299C4.40709 4.78345 4.40941 4.79397 4.41134 4.80457M4.41134 4.80457L4.26375 4.83136M4.41134 4.80457L4.26378 4.83148C4.26377 4.83144 4.26376 4.8314 4.26375 4.83136M4.41134 4.80457L3.17997 6.11564M4.26375 4.83136C4.32129 5.14843 4.23558 5.4723 4.02803 5.72053L4.02802 5.72054C3.81815 5.97158 3.50938 6.11561 3.17997 6.11564M3.17997 6.11564V6.26564V6.11564ZM11.5871 1.05009C10.3392 0.546888 8.89025 0.268597 7.50717 0.266634L11.5871 1.05009Z" fill="#F0F1F4" stroke="#969696" stroke-width="0.3"/>
</g>
<defs>
<clipPath id="clip0">
<rect width="15" height="15" fill="white"/>
</clipPath>
</defs>
</svg>
