<svg width="120" height="32" fill="none" xmlns="http://www.w3.org/2000/svg"><path d="M89.811 5.873v19.731h-4.595l-8.71-10.514v10.514h-5.468V5.873h4.594l8.71 10.514V5.873h5.47Z" fill="url(#a)"/><path d="M107.842 18.219c0 .207-.019.48-.056.817H95.665c.169 1.316.742 2.378 1.72 3.186.995.79 2.226 1.184 3.692 1.184 1.785 0 3.223-.602 4.313-1.804l1.494 1.747a6.525 6.525 0 0 1-2.537 1.804c-.996.414-2.114.62-3.355.62-1.578 0-2.978-.319-4.2-.958-1.221-.658-2.17-1.569-2.847-2.734-.657-1.165-.986-2.48-.986-3.947 0-1.447.32-2.753.958-3.918.658-1.165 1.55-2.067 2.678-2.706 1.146-.658 2.434-.986 3.862-.986s2.697.329 3.805.986a6.612 6.612 0 0 1 2.622 2.706c.639 1.165.958 2.5.958 4.003Zm-7.385-5.412c-1.297 0-2.387.394-3.27 1.184-.864.79-1.372 1.823-1.522 3.1h9.584c-.15-1.259-.667-2.283-1.55-3.072-.865-.808-1.945-1.212-3.242-1.212Z" fill="url(#b)"/><path d="M120 24.73c-.395.339-.883.602-1.466.79a6.433 6.433 0 0 1-1.804.253c-1.503 0-2.668-.404-3.495-1.212-.827-.808-1.24-1.963-1.24-3.467v-8.203h-2.537v-2.226h2.537v-3.27h2.706v3.27h4.284v2.227h-4.284v8.09c0 .808.197 1.428.592 1.86.413.432.996.648 1.747.648.827 0 1.532-.235 2.114-.704L120 24.73Z" fill="url(#c)"/><path d="M43.213 10.57c1.898 0 3.401.555 4.51 1.664 1.127 1.09 1.691 2.696 1.691 4.82v8.597h-2.706v-8.287c0-1.447-.348-2.537-1.043-3.27-.695-.733-1.691-1.1-2.988-1.1-1.466 0-2.621.433-3.467 1.297-.846.846-1.269 2.068-1.269 3.665v7.695h-2.706v-14.94h2.594v2.256c.545-.77 1.278-1.363 2.199-1.776.94-.414 2-.62 3.185-.62ZM68.007 18.266c0 .207-.019.48-.056.818H55.83c.169 1.315.742 2.377 1.72 3.185.995.79 2.226 1.184 3.692 1.184 1.785 0 3.223-.602 4.313-1.804l1.494 1.747a6.524 6.524 0 0 1-2.537 1.804c-.996.414-2.114.62-3.355.62-1.578 0-2.978-.319-4.2-.958-1.221-.658-2.17-1.569-2.847-2.734-.658-1.165-.986-2.48-.986-3.947 0-1.447.32-2.753.958-3.918.658-1.165 1.55-2.067 2.678-2.706 1.146-.658 2.434-.986 3.862-.986s2.696.329 3.805.986a6.614 6.614 0 0 1 2.622 2.706c.639 1.165.958 2.5.958 4.003Zm-7.385-5.412c-1.297 0-2.387.395-3.27 1.184-.865.79-1.372 1.823-1.522 3.1h9.584c-.15-1.259-.667-2.283-1.55-3.072-.865-.808-1.946-1.212-3.242-1.212Z" fill="#3A0BA3"/><path d="M15.66 31.32c8.65 0 15.66-7.01 15.66-15.66C31.32 7.011 24.31 0 15.66 0 7.011 0 0 7.011 0 15.66c0 8.65 7.011 15.66 15.66 15.66Z" fill="url(#d)"/><path d="M15.58 27.066c6.297 0 11.402-5.104 11.402-11.401S21.877 4.263 15.58 4.263C9.283 4.263 4.18 9.368 4.18 15.665c0 6.297 5.104 11.401 11.401 11.401Z" fill="#fff"/><path d="M17.676 10.688v2.039a3.795 3.795 0 0 1 1.835 3.243 3.807 3.807 0 0 1-3.802 3.802 3.807 3.807 0 0 1-3.802-3.802c0-1.373.736-2.579 1.834-3.248v-2.038c-2.144.802-3.678 2.867-3.678 5.286a5.649 5.649 0 0 0 5.646 5.646 5.652 5.652 0 0 0 5.645-5.646c.005-2.415-1.528-4.48-3.678-5.282Z" fill="url(#e)"/><path d="M14.814 9.102v4.857h1.799V9.102h-1.8Z" fill="url(#f)"/><defs><linearGradient id="a" x1="119.976" y1="5.873" x2="99.566" y2="-13.855" gradientUnits="userSpaceOnUse"><stop stop-color="#8E2E9E"/><stop offset="1" stop-color="#3809A3"/></linearGradient><linearGradient id="b" x1="119.976" y1="5.873" x2="99.566" y2="-13.855" gradientUnits="userSpaceOnUse"><stop stop-color="#8E2E9E"/><stop offset="1" stop-color="#3809A3"/></linearGradient><linearGradient id="c" x1="119.976" y1="5.873" x2="99.566" y2="-13.855" gradientUnits="userSpaceOnUse"><stop stop-color="#8E2E9E"/><stop offset="1" stop-color="#3809A3"/></linearGradient><linearGradient id="d" x1="25.01" y1="27.21" x2="5.296" y2="2.866" gradientUnits="userSpaceOnUse"><stop stop-color="#390AA3"/><stop offset="1" stop-color="#8E2E9E"/></linearGradient><linearGradient id="e" x1="10.063" y1="10.684" x2="17.032" y2="23.883" gradientUnits="userSpaceOnUse"><stop stop-color="#8E2E9E"/><stop offset="1" stop-color="#3809A3"/></linearGradient><linearGradient id="f" x1="14.814" y1="9.102" x2="18.299" y2="11.47" gradientUnits="userSpaceOnUse"><stop stop-color="#8E2E9E"/><stop offset="1" stop-color="#3809A3"/></linearGradient></defs></svg>